<svg width="500" height="500" viewBox="0 0 500 500" fill="none" xmlns="http://www.w3.org/2000/svg">
<rect width="500" height="500" rx="8" fill="black"/>
<path d="M186.568 272C185.811 262.53 182.259 255.144 175.915 249.841C169.665 244.538 160.148 241.886 147.364 241.886C139.22 241.886 132.544 242.881 127.335 244.869C122.222 246.763 118.434 249.367 115.972 252.682C113.509 255.996 112.231 259.784 112.136 264.045C111.947 267.549 112.563 270.722 113.983 273.562C115.498 276.309 117.866 278.818 121.085 281.091C124.305 283.269 128.424 285.258 133.443 287.057C138.462 288.856 144.428 290.466 151.341 291.886L175.205 297C191.303 300.409 205.081 304.907 216.54 310.494C227.998 316.081 237.373 322.663 244.665 330.239C251.956 337.72 257.307 346.148 260.716 355.523C264.22 364.898 266.019 375.125 266.114 386.205C266.019 405.333 261.237 421.527 251.767 434.784C242.297 448.042 228.756 458.127 211.142 465.04C193.623 471.953 172.553 475.409 147.932 475.409C122.648 475.409 100.583 471.669 81.7386 464.188C62.9886 456.706 48.4053 445.201 37.9886 429.67C27.6667 414.045 22.4583 394.064 22.3636 369.727H97.3636C97.8371 378.629 100.063 386.11 104.04 392.17C108.017 398.231 113.604 402.824 120.801 405.949C128.093 409.074 136.758 410.636 146.795 410.636C155.223 410.636 162.278 409.595 167.96 407.511C173.642 405.428 177.951 402.54 180.886 398.847C183.822 395.153 185.337 390.939 185.432 386.205C185.337 381.754 183.869 377.871 181.028 374.557C178.282 371.148 173.737 368.117 167.392 365.466C161.047 362.72 152.477 360.163 141.682 357.795L112.705 351.545C86.947 345.958 66.6345 336.631 51.767 323.562C36.9943 310.4 29.6553 292.455 29.75 269.727C29.6553 251.261 34.5795 235.116 44.5227 221.29C54.5606 207.369 68.4337 196.527 86.142 188.761C103.945 180.996 124.352 177.114 147.364 177.114C170.848 177.114 191.161 181.044 208.301 188.903C225.441 196.763 238.652 207.843 247.932 222.142C257.307 236.347 262.042 252.966 262.136 272H186.568Z" fill="white"/>
</svg>
